<?xml version="1.0" encoding="iso-8859-1"?>
<!-- Generator: Adobe Illustrator 19.0.0, SVG Export Plug-In . SVG Version: 6.00 Build 0)  -->
<svg version="1.1" id="Layer_1" xmlns="http://www.w3.org/2000/svg" xmlns:xlink="http://www.w3.org/1999/xlink" x="0px" y="0px"
	 viewBox="0 0 512.001 512.001" style="enable-background:new 0 0 512.001 512.001;" xml:space="preserve">
<g>
	<path style="fill:#FFA0C1;" d="M426.498,193.826l0.003-0.008l-25.665-6.487l-144.837,24.955l-153.614-24.955l-16.887,6.487
		l0.007,0.008c-6.364,26.774-10.129,55.391-10.612,85.244l0.006,0.158l10.6,36.358l78.79,26.309l72.736,9.591h82.795l87.437-21.972
		l23.905-28.63l5.939-21.656l0.006-0.131C436.626,249.234,432.863,220.607,426.498,193.826z"/>
	<path style="fill:#FFA0C1;" d="M256.001,0C214.87,0,172.33,27.954,138.813,74.168l-0.651,0.9l63.462,34.9h127.094l45.121-34.9
		C340.223,28.317,297.397,0,256.001,0z"/>
	<path style="fill:#FFA0C1;" d="M414.814,154.377c-4.076-11.391-8.628-22.328-13.601-32.742l-0.375-0.783l-144.836,3.223
		l-144.837-3.223c-5.117,10.648-9.794,21.849-13.972,33.525l-0.015,0.002l20.298,24.634l138.527,20.118l144.835-18.571
		l13.987-26.181L414.814,154.377z"/>
</g>
<path style="fill:#FFDF96;" d="M400.838,120.851c-8.021-16.692-17.111-32.034-26.998-45.784
	c-30.58,10.397-70.623,17.57-117.839,17.57s-87.257-7.174-117.839-17.57c-9.887,13.751-18.976,29.092-26.998,45.784
	c40.865,15.545,91.59,24.018,144.837,24.018S359.973,136.396,400.838,120.851z"/>
<path style="fill:#61CCFF;" d="M256.001,225.923c61.813,0,120.24-10.453,164.518-29.435c2.037-0.873,4.022-1.768,5.983-2.671
	c-3.244-13.654-7.166-26.828-11.678-39.439c-3.277,1.633-6.709,3.228-10.311,4.772c-39.335,16.862-92.078,26.149-148.512,26.149
	s-109.177-9.287-148.512-26.149c-3.603-1.545-7.036-3.14-10.313-4.772c-4.512,12.612-8.433,25.784-11.678,39.44
	c1.962,0.903,3.946,1.798,5.983,2.671C135.761,215.47,194.188,225.923,256.001,225.923z"/>
<g>
	<path style="fill:#FFA0C1;" d="M384.02,453.822l-5.392-11.723l-34.24,9.285l-47.588,6.384h-40.798h-24.78l-96.336-12.767
		l-6.905,8.821l0.031,0.021C162.712,493.826,209.967,512,255.999,512c46.038,0,93.298-18.175,128.001-58.167L384.02,453.822z"/>
	<path style="fill:#FFA0C1;" d="M431.163,351.485l-16.338-8.043l-75.66,24.761l-94.015,3.869h-24.374L94.118,339.572l-13.278,11.912
		l0.135,0.678c3.238,16.41,7.692,31.435,13.157,45.147l-0.014,0.008l12.986,15.184l61.443,25.535l96.916,4.062l103.3-12.299
		l31.338-14.397l17.785-18.086l-0.01-0.015C423.413,383.404,427.914,368.156,431.163,351.485L431.163,351.485z"/>
</g>
<path style="fill:#61CCFF;" d="M437.102,279.227c-15.121,26.613-82.466,57.911-181.102,57.911S90.02,305.841,74.899,279.227
	c-0.034,2.133-0.059,4.269-0.059,6.414c0,24.026,2.119,45.934,5.998,65.843c4.935,2.708,10.134,5.309,15.622,7.783
	c43.048,19.411,99.708,30.101,159.541,30.101s116.492-10.69,159.541-30.101c5.488-2.475,10.685-5.076,15.622-7.783
	c3.879-19.909,5.998-41.817,5.998-65.843C437.161,283.496,437.136,281.361,437.102,279.227z"/>
<path style="fill:#FFDF96;" d="M256.001,429.801c-56.434,0-109.177-9.287-148.512-26.149c-4.743-2.034-9.201-4.152-13.372-6.334
	c8.87,22.251,20.423,41.015,33.865,56.504c37.833,10.8,81.984,16.602,128.019,16.602s90.187-5.802,128.019-16.602
	c13.441-15.489,24.995-34.253,33.865-56.504c-4.173,2.182-8.63,4.3-13.372,6.334C365.177,420.514,312.435,429.801,256.001,429.801z"
	/>
<path style="opacity:0.1;enable-background:new    ;" d="M164.343,422.946c-9.29-16.504-16.877-35.461-22.273-57.002
	c-5.914-23.607-9.196-50.317-9.196-80.303c0-43.908,7.115-85.274,19.235-122.187c9.492-28.909,22.056-55.076,36.697-77.58
	c27.093-41.644,61.28-70.735,96.212-81.389C275.357,1.541,265.64,0,256.001,0c-44.496,0-90.643,32.715-125.229,85.875
	c-14.641,22.504-27.205,48.672-36.697,77.58c-12.119,36.913-19.235,78.28-19.235,122.188c0,29.986,3.282,56.694,9.196,80.303
	c5.396,21.541,12.984,40.498,22.273,57.002c34.697,61.635,93.123,89.054,149.69,89.054c9.661,0,19.374-0.821,29.017-2.454
	C238.204,501.614,193.115,474.054,164.343,422.946z"/>
<g>
</g>
<g>
</g>
<g>
</g>
<g>
</g>
<g>
</g>
<g>
</g>
<g>
</g>
<g>
</g>
<g>
</g>
<g>
</g>
<g>
</g>
<g>
</g>
<g>
</g>
<g>
</g>
<g>
</g>
</svg>
